<mxfile host="app.diagrams.net" modified="2022-01-10T01:19:47.320Z" agent="5.0 (Windows NT 10.0; Win64; x64) AppleWebKit/537.36 (KHTML, like Gecko) Chrome/89.0.4389.82 Safari/537.36" etag="qXLlF9wwVlzDSCkz5-qy" version="16.1.2" type="github">
  <diagram id="_zW5vxU73ut5M0M7swxG" name="Page-1">
    <mxGraphModel dx="1422" dy="794" grid="1" gridSize="10" guides="1" tooltips="1" connect="1" arrows="1" fold="1" page="1" pageScale="1" pageWidth="827" pageHeight="1169" math="0" shadow="0">
      <root>
        <mxCell id="0" />
        <mxCell id="1" parent="0" />
        <mxCell id="0-aevPaOcupNLtV0SeZT-1" value="Pool" style="swimlane;childLayout=stackLayout;resizeParent=1;resizeParentMax=0;startSize=20;" vertex="1" parent="1">
          <mxGeometry x="80" y="60" width="360" height="480" as="geometry">
            <mxRectangle x="80" y="110" width="60" height="20" as="alternateBounds" />
          </mxGeometry>
        </mxCell>
        <mxCell id="0-aevPaOcupNLtV0SeZT-2" value="车道 1" style="swimlane;startSize=20;" vertex="1" parent="0-aevPaOcupNLtV0SeZT-1">
          <mxGeometry y="20" width="120" height="460" as="geometry" />
        </mxCell>
        <mxCell id="0-aevPaOcupNLtV0SeZT-5" value="" style="strokeWidth=2;html=1;shape=mxgraph.flowchart.start_2;whiteSpace=wrap;" vertex="1" parent="0-aevPaOcupNLtV0SeZT-2">
          <mxGeometry x="40" y="40" width="40" height="40" as="geometry" />
        </mxCell>
        <mxCell id="0-aevPaOcupNLtV0SeZT-3" value="Lane 2" style="swimlane;startSize=20;" vertex="1" parent="0-aevPaOcupNLtV0SeZT-1">
          <mxGeometry x="120" y="20" width="120" height="460" as="geometry" />
        </mxCell>
        <mxCell id="0-aevPaOcupNLtV0SeZT-4" value="Lane 3" style="swimlane;startSize=20;" vertex="1" parent="0-aevPaOcupNLtV0SeZT-1">
          <mxGeometry x="240" y="20" width="120" height="460" as="geometry" />
        </mxCell>
      </root>
    </mxGraphModel>
  </diagram>
</mxfile>
